<mxfile host="app.diagrams.net" modified="2024-01-13T04:30:02.289Z" agent="Mozilla/5.0 (Windows NT 10.0; Win64; x64) AppleWebKit/537.36 (KHTML, like Gecko) Chrome/120.0.0.0 Safari/537.36" etag="ll2rvPcVYtSXm-_u5lxG" version="22.1.18" type="github">
  <diagram name="페이지-1" id="HAdsagcqMK5C1EckOBzp">
    <mxGraphModel dx="989" dy="532" grid="1" gridSize="10" guides="1" tooltips="1" connect="1" arrows="1" fold="1" page="1" pageScale="1" pageWidth="827" pageHeight="1169" math="0" shadow="0">
      <root>
        <mxCell id="0" />
        <mxCell id="1" parent="0" />
        <mxCell id="4qFjMlLQ6r4KH2gJYc2y-1" value="DataSource" style="ellipse;whiteSpace=wrap;html=1;" vertex="1" parent="1">
          <mxGeometry x="50" y="130" width="90" height="60" as="geometry" />
        </mxCell>
        <mxCell id="4qFjMlLQ6r4KH2gJYc2y-2" value="JAVA" style="ellipse;whiteSpace=wrap;html=1;" vertex="1" parent="1">
          <mxGeometry x="50" y="303" width="90" height="60" as="geometry" />
        </mxCell>
        <mxCell id="4qFjMlLQ6r4KH2gJYc2y-3" value="Data Target" style="ellipse;whiteSpace=wrap;html=1;" vertex="1" parent="1">
          <mxGeometry x="50" y="461" width="90" height="60" as="geometry" />
        </mxCell>
        <mxCell id="4qFjMlLQ6r4KH2gJYc2y-4" value="" style="endArrow=classic;html=1;rounded=0;exitX=0.5;exitY=1;exitDx=0;exitDy=0;" edge="1" parent="1" source="4qFjMlLQ6r4KH2gJYc2y-1" target="4qFjMlLQ6r4KH2gJYc2y-2">
          <mxGeometry width="50" height="50" relative="1" as="geometry">
            <mxPoint x="380" y="510" as="sourcePoint" />
            <mxPoint x="430" y="460" as="targetPoint" />
          </mxGeometry>
        </mxCell>
        <mxCell id="4qFjMlLQ6r4KH2gJYc2y-5" value="" style="endArrow=classic;html=1;rounded=0;exitX=0.5;exitY=1;exitDx=0;exitDy=0;" edge="1" parent="1" source="4qFjMlLQ6r4KH2gJYc2y-2" target="4qFjMlLQ6r4KH2gJYc2y-3">
          <mxGeometry width="50" height="50" relative="1" as="geometry">
            <mxPoint x="150" y="183" as="sourcePoint" />
            <mxPoint x="340" y="183" as="targetPoint" />
          </mxGeometry>
        </mxCell>
        <mxCell id="4qFjMlLQ6r4KH2gJYc2y-7" value="input &lt;br&gt;stream" style="text;html=1;align=left;verticalAlign=middle;resizable=0;points=[];autosize=1;strokeColor=none;fillColor=none;" vertex="1" parent="1">
          <mxGeometry x="110" y="205" width="60" height="40" as="geometry" />
        </mxCell>
        <mxCell id="4qFjMlLQ6r4KH2gJYc2y-8" value="output &lt;br&gt;stream" style="text;html=1;align=left;verticalAlign=middle;resizable=0;points=[];autosize=1;strokeColor=none;fillColor=none;" vertex="1" parent="1">
          <mxGeometry x="100" y="368" width="60" height="40" as="geometry" />
        </mxCell>
        <mxCell id="4qFjMlLQ6r4KH2gJYc2y-9" value="DataSource" style="ellipse;whiteSpace=wrap;html=1;" vertex="1" parent="1">
          <mxGeometry x="270" y="130" width="90" height="60" as="geometry" />
        </mxCell>
        <mxCell id="4qFjMlLQ6r4KH2gJYc2y-10" value="JAVA" style="ellipse;whiteSpace=wrap;html=1;" vertex="1" parent="1">
          <mxGeometry x="270" y="303" width="90" height="60" as="geometry" />
        </mxCell>
        <mxCell id="4qFjMlLQ6r4KH2gJYc2y-11" value="Data Target" style="ellipse;whiteSpace=wrap;html=1;" vertex="1" parent="1">
          <mxGeometry x="270" y="461" width="90" height="60" as="geometry" />
        </mxCell>
        <mxCell id="4qFjMlLQ6r4KH2gJYc2y-12" value="" style="endArrow=classic;html=1;rounded=0;exitX=0.5;exitY=1;exitDx=0;exitDy=0;entryX=0.5;entryY=0;entryDx=0;entryDy=0;" edge="1" parent="1" source="4qFjMlLQ6r4KH2gJYc2y-9" target="4qFjMlLQ6r4KH2gJYc2y-16">
          <mxGeometry width="50" height="50" relative="1" as="geometry">
            <mxPoint x="600" y="510" as="sourcePoint" />
            <mxPoint x="650" y="460" as="targetPoint" />
          </mxGeometry>
        </mxCell>
        <mxCell id="4qFjMlLQ6r4KH2gJYc2y-13" value="" style="endArrow=classic;html=1;rounded=0;exitX=0.5;exitY=1;exitDx=0;exitDy=0;entryX=0.5;entryY=0;entryDx=0;entryDy=0;" edge="1" parent="1" source="4qFjMlLQ6r4KH2gJYc2y-10" target="4qFjMlLQ6r4KH2gJYc2y-19">
          <mxGeometry width="50" height="50" relative="1" as="geometry">
            <mxPoint x="370" y="183" as="sourcePoint" />
            <mxPoint x="410" y="373" as="targetPoint" />
          </mxGeometry>
        </mxCell>
        <mxCell id="4qFjMlLQ6r4KH2gJYc2y-14" value="Channel&lt;br&gt;Write" style="text;html=1;align=left;verticalAlign=middle;resizable=0;points=[];autosize=1;strokeColor=none;fillColor=none;" vertex="1" parent="1">
          <mxGeometry x="320" y="195" width="70" height="40" as="geometry" />
        </mxCell>
        <mxCell id="4qFjMlLQ6r4KH2gJYc2y-16" value="buffer" style="rounded=1;whiteSpace=wrap;html=1;fillColor=#ffe6cc;strokeColor=#d79b00;" vertex="1" parent="1">
          <mxGeometry x="285" y="235" width="60" height="25" as="geometry" />
        </mxCell>
        <mxCell id="4qFjMlLQ6r4KH2gJYc2y-18" value="" style="endArrow=classic;html=1;rounded=0;exitX=0.5;exitY=1;exitDx=0;exitDy=0;" edge="1" parent="1" source="4qFjMlLQ6r4KH2gJYc2y-16" target="4qFjMlLQ6r4KH2gJYc2y-10">
          <mxGeometry width="50" height="50" relative="1" as="geometry">
            <mxPoint x="340" y="370" as="sourcePoint" />
            <mxPoint x="390" y="320" as="targetPoint" />
          </mxGeometry>
        </mxCell>
        <mxCell id="4qFjMlLQ6r4KH2gJYc2y-19" value="buffer" style="rounded=1;whiteSpace=wrap;html=1;fillColor=#ffe6cc;strokeColor=#d79b00;" vertex="1" parent="1">
          <mxGeometry x="285" y="401" width="60" height="25" as="geometry" />
        </mxCell>
        <mxCell id="4qFjMlLQ6r4KH2gJYc2y-20" value="" style="endArrow=classic;html=1;rounded=0;exitX=0.5;exitY=1;exitDx=0;exitDy=0;" edge="1" parent="1" source="4qFjMlLQ6r4KH2gJYc2y-19" target="4qFjMlLQ6r4KH2gJYc2y-11">
          <mxGeometry width="50" height="50" relative="1" as="geometry">
            <mxPoint x="325" y="301" as="sourcePoint" />
            <mxPoint x="325" y="321" as="targetPoint" />
          </mxGeometry>
        </mxCell>
        <mxCell id="4qFjMlLQ6r4KH2gJYc2y-21" value="Channel&lt;br&gt;Read" style="text;html=1;align=left;verticalAlign=middle;resizable=0;points=[];autosize=1;strokeColor=none;fillColor=none;" vertex="1" parent="1">
          <mxGeometry x="320" y="421" width="70" height="40" as="geometry" />
        </mxCell>
        <mxCell id="4qFjMlLQ6r4KH2gJYc2y-22" value="Buffer&lt;br&gt;Read" style="text;html=1;align=left;verticalAlign=middle;resizable=0;points=[];autosize=1;strokeColor=none;fillColor=none;" vertex="1" parent="1">
          <mxGeometry x="320" y="260" width="60" height="40" as="geometry" />
        </mxCell>
        <mxCell id="4qFjMlLQ6r4KH2gJYc2y-23" value="Buffer&lt;br&gt;Write" style="text;html=1;align=left;verticalAlign=middle;resizable=0;points=[];autosize=1;strokeColor=none;fillColor=none;" vertex="1" parent="1">
          <mxGeometry x="320" y="361" width="60" height="40" as="geometry" />
        </mxCell>
        <mxCell id="4qFjMlLQ6r4KH2gJYc2y-24" value="IO" style="text;html=1;align=center;verticalAlign=middle;resizable=0;points=[];autosize=1;strokeColor=none;fillColor=none;fontStyle=1;fontSize=21;" vertex="1" parent="1">
          <mxGeometry x="50" y="85" width="50" height="40" as="geometry" />
        </mxCell>
        <mxCell id="4qFjMlLQ6r4KH2gJYc2y-25" value="NIO" style="text;html=1;align=center;verticalAlign=middle;resizable=0;points=[];autosize=1;strokeColor=none;fillColor=none;fontStyle=1;fontSize=21;" vertex="1" parent="1">
          <mxGeometry x="285" y="85" width="60" height="40" as="geometry" />
        </mxCell>
      </root>
    </mxGraphModel>
  </diagram>
</mxfile>
